<svg width="512" height="512" viewBox="0 0 512 512" fill="none" xmlns="http://www.w3.org/2000/svg">
  <!-- 粉紫色渐变背景 -->
  <defs>
    <linearGradient id="bgGradient" x1="0%" y1="0%" x2="100%" y2="100%">
      <stop offset="0%" style="stop-color:#E0C3FC;stop-opacity:1" />
      <stop offset="100%" style="stop-color:#8EC5FC;stop-opacity:1" />
    </linearGradient>
    <linearGradient id="hatGradient" x1="0%" y1="0%" x2="100%" y2="100%">
      <stop offset="0%" style="stop-color:#9333EA;stop-opacity:1" />
      <stop offset="100%" style="stop-color:#EC4899;stop-opacity:1" />
    </linearGradient>
  </defs>

  <!-- 圆角矩形背景 -->
  <rect width="512" height="512" rx="115" fill="url(#bgGradient)"/>

  <!-- 学士帽 (正立) -->
  <g transform="translate(256, 200)">
    <!-- 帽顶板 (正立的平行四边形) -->
    <path d="M -120 -40 L 120 -80 L 120 -40 L -120 0 Z" fill="url(#hatGradient)" stroke="#7C3AED" stroke-width="4"/>

    <!-- 帽身 -->
    <path d="M -80 0 L -80 80 Q -80 100 -60 100 L 60 100 Q 80 100 80 80 L 80 0"
          fill="url(#hatGradient)" stroke="#7C3AED" stroke-width="4"/>

    <!-- 帽顶装饰线 -->
    <line x1="-120" y1="-40" x2="120" y2="-80" stroke="#FDE047" stroke-width="3"/>

    <!-- 流苏 -->
    <g transform="translate(120, -60)">
      <line x1="0" y1="0" x2="0" y2="80" stroke="#FDE047" stroke-width="3"/>
      <circle cx="0" cy="85" r="8" fill="#FDE047"/>
      <!-- 流苏线 -->
      <line x1="-5" y1="90" x2="-10" y2="105" stroke="#FDE047" stroke-width="2"/>
      <line x1="0" y1="93" x2="0" y2="110" stroke="#FDE047" stroke-width="2"/>
      <line x1="5" y1="90" x2="10" y2="105" stroke="#FDE047" stroke-width="2"/>
    </g>
  </g>

  <!-- 星星装饰 -->
  <g transform="translate(380, 120)">
    <path d="M 0 -12 L 3 -3 L 12 -3 L 5 3 L 8 12 L 0 6 L -8 12 L -5 3 L -12 -3 L -3 -3 Z"
          fill="#FDE047" opacity="0.8"/>
  </g>
  <g transform="translate(420, 180)">
    <path d="M 0 -8 L 2 -2 L 8 -2 L 3 2 L 5 8 L 0 4 L -5 8 L -3 2 L -8 -2 L -2 -2 Z"
          fill="#FDE047" opacity="0.6"/>
  </g>
</svg>
